<?xml version="1.0" encoding="UTF-8"?>
<svg id="Layer_2" xmlns="http://www.w3.org/2000/svg" xmlns:xlink="http://www.w3.org/1999/xlink" viewBox="0 0 176.59 189.88" width="77" height="79">
  <defs>
    <style>
      .cls-1 {
        fill: #e8f5f2;
      }

      .cls-2 {
        fill: #fff;
      }

      .cls-3 {
        fill: none;
      }

      .cls-4 {
        clip-path: url(#clippath-1);
      }

      .cls-5 {
        opacity: .71;
      }

      .cls-6 {
        fill: #13b1c6;
      }

      .cls-7 {
        clip-path: url(#clippath);
      }
    </style>
    <clipPath id="clippath">
      <rect class="cls-3" width="176.59" height="189.88"/>
    </clipPath>
    <clipPath id="clippath-1">
      <rect class="cls-3" width="176.59" height="189.88"/>
    </clipPath>
  </defs>
  <g id="Layer_1-2" data-name="Layer_1">
    <g class="cls-7">
      <g class="cls-4">
        <path class="cls-1" d="M88.06,109.43c-.8-12.3,4.13-33.42-14.97-28.95-6.63,7.9-10.43,14.85-22.58,14.9-29.31-.46-29.84-43.65-.49-44.83,10.24-.65,16.74,6.36,22.31,13.75,6.79,3.62,16.11-1.67,15.86-9.53v-10.77c-.56-22.75,5.46-40.92-23.16-43.5-2.83-.61-15.28.36-18.91,6.15-2.35,3.53-1.48,5.28-5.69,8.02-2.97,1.88-5.17.75-9.58,1.63-9.65,3.49-8.95,3.1-13.85,10.53-2.59,5.39-1.17,9.15-4.4,12.54-5.92,6.15-9.1,7.51-11.65,16.67-3.87,10.39,5.53,16.85,3.63,26.07-1.98,8.5-5.33,9.7-2.97,18.17,1.09,6.72,10.74,10.74,15.41,15.42,4.71,9.79,6.11,14.15,16.05,21.31,7.49,6.04,18.77,5.08,27.05,1.63,7.76-1.5,12.94,3.39,18.24,1.88,14.67-4.69,8.41-20.64,9.71-31.09"/>
        <path class="cls-6" d="M174.67,90.79c-9.76-19.26,11.6-25.07-3.95-45.01-12.93-10.86-5.64-15.82-14.01-24.88-6.12-7.06-17.51-1.81-22.36-10.17C131.34,1,122.85-.47,115.62.11c-10.37-.59-25.18,6.76-22.3,22.3.33,10.54-.07,22.88.05,33.47-.86,10.95-13.74,18.98-23.62,13.46-6.72-5.29-8.72-13.74-19.6-13.12-14.13-.11-22,18.16-12,28.15,7.63,8.64,22.93,6.26,27.63-4.22,6.16-11.42,22.49-4.89,26.35,4.45,5.06,11.45-2.83,42.88,3.92,53.36,6.87,8,18.71-3.74,28.79,2.44,3.35,1.29,3.56,1.47,7.8,1.26,4.4-.19,9.22-.49,12.46-3.75,8.94-6.39,11-12.29,15.4-21.8,2.74-3.93,8.71-6.09,11.82-9.81,3.8-4.82,4.75-10.38,2.37-15.52"/>
        <g class="cls-5">
          <path class="cls-2" d="M24.6,180.08c-1.65,0-3.19-.29-4.64-.88-1.45-.59-2.71-1.41-3.77-2.47-1.06-1.06-1.91-2.31-2.54-3.76-.63-1.45-.94-3.02-.94-4.72v-.07c0-1.66.31-3.21.92-4.66.61-1.45,1.46-2.71,2.54-3.79,1.08-1.08,2.35-1.92,3.84-2.53,1.48-.61,3.1-.92,4.86-.92,1.19,0,2.26.11,3.23.34.97.23,1.85.56,2.65.98.8.42,1.53.93,2.17,1.52.65.59,1.22,1.23,1.73,1.93l-4.81,3.69c-.66-.83-1.38-1.48-2.17-1.96-.79-.48-1.75-.72-2.87-.72-.81,0-1.55.16-2.22.47-.67.32-1.25.75-1.73,1.29-.48.54-.86,1.19-1.14,1.93-.27.74-.41,1.53-.41,2.35v.07c0,.85.14,1.65.41,2.4.27.75.65,1.4,1.14,1.95.48.54,1.06.98,1.73,1.29.67.32,1.41.47,2.22.47.59,0,1.14-.07,1.63-.2s.94-.32,1.35-.57c.41-.25.79-.54,1.15-.88s.72-.71,1.07-1.13l4.81,3.4c-.55.74-1.15,1.43-1.79,2.06-.65.63-1.38,1.18-2.21,1.63-.82.46-1.75.82-2.77,1.08s-2.17.39-3.44.39Z"/>
          <path class="cls-2" d="M37.18,155.75h6.29v8.6c.56-.74,1.27-1.39,2.11-1.96.85-.57,1.9-.85,3.16-.85,1.92,0,3.42.58,4.49,1.73,1.07,1.16,1.61,2.75,1.61,4.77v11.57h-6.29v-9.58c0-.98-.23-1.72-.68-2.22-.46-.5-1.05-.75-1.79-.75s-1.38.25-1.87.75c-.49.5-.73,1.24-.73,2.22v9.58h-6.29v-23.87Z"/>
          <path class="cls-2" d="M63.17,180.01c-.86,0-1.65-.12-2.37-.36-.72-.24-1.36-.59-1.89-1.05-.54-.46-.96-1.02-1.27-1.7-.31-.67-.46-1.46-.46-2.35v-.07c0-.92.17-1.72.51-2.42s.81-1.28,1.42-1.73c.6-.46,1.33-.81,2.19-1.05.86-.24,1.81-.36,2.87-.36.83,0,1.63.07,2.39.21.76.14,1.39.3,1.89.47v-.29c0-.92-.29-1.62-.87-2.13-.58-.5-1.48-.75-2.68-.75-.94,0-1.8.09-2.57.26-.77.17-1.55.42-2.34.72l-1.28-4.38c1.01-.41,2.08-.75,3.21-1s2.46-.38,4-.38,2.96.19,4.07.56c1.11.37,2.01.9,2.72,1.6.68.65,1.17,1.44,1.47,2.37.3.93.44,2.01.44,3.25v10.17h-6.19v-1.83c-.61.68-1.35,1.22-2.19,1.62-.85.4-1.86.61-3.05.61ZM65.41,176.12c.92,0,1.67-.26,2.24-.79.57-.52.86-1.23.86-2.12v-.82c-.31-.13-.67-.24-1.1-.33s-.87-.13-1.33-.13c-.92,0-1.63.2-2.12.6-.49.4-.74.93-.74,1.59v.07c0,.61.21,1.08.63,1.42.42.34.94.51,1.58.51Z"/>
          <path class="cls-2" d="M84.77,179.98c-1.9,0-3.38-.45-4.44-1.34-1.06-.89-1.59-2.4-1.59-4.51v-7.19h-2.11v-5h2.11v-4.48h6.29v4.48h4.15v5h-4.15v5.98c0,.63.14,1.08.43,1.36.29.27.71.41,1.28.41.42,0,.82-.05,1.22-.16.4-.11.78-.25,1.15-.42v4.87c-.57.31-1.22.55-1.94.74-.72.18-1.53.28-2.41.28Z"/>
          <path class="cls-2" d="M92.22,156.73h6.75l5.5,8.86,5.5-8.86h6.75v22.88h-6.36v-13.14l-5.88,8.96h-.13l-5.85-8.89v13.08h-6.29v-22.88Z"/>
          <path class="cls-2" d="M120.81,156.73h18.51v5.39h-12.22v3.47h11.07v5h-11.07v3.63h12.38v5.39h-18.67v-22.88Z"/>
          <path class="cls-2" d="M142.77,156.73h8.89c2.06,0,3.9.28,5.52.83,1.61.56,2.98,1.34,4.08,2.34,1.11,1,1.95,2.2,2.54,3.58s.87,2.9.87,4.56v.07c0,1.66-.3,3.19-.89,4.59-.59,1.41-1.45,2.62-2.57,3.65-1.12,1.03-2.5,1.83-4.13,2.4s-3.49.87-5.55.87h-8.76v-22.88ZM151.77,173.99c1.92,0,3.46-.5,4.63-1.5,1.17-1,1.75-2.43,1.75-4.28v-.07c0-1.83-.58-3.25-1.75-4.27-1.17-1.01-2.71-1.52-4.63-1.52h-2.61v11.64h2.61Z"/>
        </g>
      </g>
    </g>
  </g>
</svg>